<svg id="Layer_1" data-name="Layer 1" xmlns="http://www.w3.org/2000/svg" viewBox="0 0 142 32"><defs><style>.cls-1{fill:#129dd8;}.cls-2{fill:#fff;}.cls-3{fill:#333;}</style></defs><title>logo</title><path class="cls-1" d="M2.654,0H29.192a2.661,2.661,0,0,1,2.654,2.667V29.333A2.661,2.661,0,0,1,29.192,32H2.654A2.661,2.661,0,0,1,0,29.333V2.667A2.661,2.661,0,0,1,2.654,0Z"/><path class="cls-2" d="M25.949,15.677a9.554,9.554,0,0,0-.1-1.145l-1.99-.331-0.671-1.888,1.323-1.524a10.052,10.052,0,0,0-1.422-1.844l-1.8.908L19.64,8.726l0.178-2.017a9.886,9.886,0,0,0-2.16-.639l-0.935,1.8-1.99.041L13.708,6.165a9.954,9.954,0,0,0-2.189.777l0.3,2-1.592,1.224-1.851-.8a10.017,10.017,0,0,0-1.314,1.92l1.407,1.445L7.9,14.652,5.934,15.1A10.229,10.229,0,0,0,5.9,16.317,10.944,10.944,0,0,0,6,17.428l1.99,0.336,0.667,1.89-1.338,1.52a10.194,10.194,0,0,0,1.418,1.853l1.8-.9,1.647,1.133L12,25.275a10.026,10.026,0,0,0,2.226.66l0.931-1.8,2-.055,1.029,1.743a10.064,10.064,0,0,0,2.189-.786l-0.3-2L21.647,21.8,23.5,22.6a10.036,10.036,0,0,0,1.31-1.925l-1.419-1.439,0.559-1.928,1.967-.448A10.28,10.28,0,0,0,25.949,15.677Zm-7.06,3.712A4.48,4.48,0,0,1,12.56,18.8a4.531,4.531,0,0,1,.582-6.36,4.48,4.48,0,0,1,6.329.585,4.531,4.531,0,0,1-.576,6.355Z"/><path class="cls-3" d="M63.661,28.1H59L48.568,12.171V28.1H43.911V4.671h4.657L59,20.734V4.671h4.657V28.1Z"/><path class="cls-3" d="M79.018,10.579a5.967,5.967,0,0,1,2.345,2.954V9.716h4.623V28.1H81.364v-3.85a6.047,6.047,0,0,1-2.345,2.97,6.922,6.922,0,0,1-3.963,1.112A7.826,7.826,0,0,1,70.894,27.2,7.6,7.6,0,0,1,68,23.936a11.375,11.375,0,0,1-1.041-5.027A11.375,11.375,0,0,1,68,13.881a7.606,7.606,0,0,1,2.889-3.27,7.834,7.834,0,0,1,4.162-1.128A7.012,7.012,0,0,1,79.018,10.579Zm-6.011,4.414a5.542,5.542,0,0,0-1.321,3.916,5.481,5.481,0,0,0,1.321,3.9,4.988,4.988,0,0,0,6.985-.033,5.385,5.385,0,0,0,1.371-3.866,5.432,5.432,0,0,0-1.371-3.9,4.594,4.594,0,0,0-3.484-1.443A4.544,4.544,0,0,0,73.007,14.993Z"/><path class="cls-3" d="M118.766,11.525a8.323,8.323,0,0,1,1.932,5.891V28.1h-4.624V17.946A4.6,4.6,0,0,0,115,14.677a3.858,3.858,0,0,0-2.956-1.145,4.06,4.06,0,0,0-3.1,1.228,5.043,5.043,0,0,0-1.157,3.584V28.1h-4.623V17.946a4.608,4.608,0,0,0-1.073-3.269,3.859,3.859,0,0,0-2.956-1.145,4.06,4.06,0,0,0-3.1,1.228,5.039,5.039,0,0,0-1.157,3.584V28.1H90.214V9.716h4.656V13.2a5.7,5.7,0,0,1,2.3-2.771,6.752,6.752,0,0,1,3.649-.979,6.911,6.911,0,0,1,3.848,1.062,6.488,6.488,0,0,1,2.461,3.054,6.932,6.932,0,0,1,2.559-3A7.463,7.463,0,0,1,118.766,11.525Z"/><path class="cls-3" d="M141.835,19.8H128.426a5.08,5.08,0,0,0,1.321,3.617,4.234,4.234,0,0,0,3.039,1.162,4.392,4.392,0,0,0,2.691-.8,3.522,3.522,0,0,0,1.37-2.157h4.922a7.941,7.941,0,0,1-1.552,3.452,8.122,8.122,0,0,1-3.056,2.389,10.415,10.415,0,0,1-8.9-.282,8.02,8.02,0,0,1-3.236-3.269,10.313,10.313,0,0,1-1.157-5.011,10.412,10.412,0,0,1,1.157-5.027,7.9,7.9,0,0,1,3.236-3.27,9.817,9.817,0,0,1,4.755-1.128,9.6,9.6,0,0,1,4.74,1.128,7.94,7.94,0,0,1,3.137,3.1,9.04,9.04,0,0,1,1.107,4.5A8.916,8.916,0,0,1,141.835,19.8Zm-5.7-5.476a4.464,4.464,0,0,0-3.122-1.161,4.566,4.566,0,0,0-3.17,1.161,4.768,4.768,0,0,0-1.42,3.419h8.884A4.138,4.138,0,0,0,136.138,14.329Z"/></svg>